<svg xmlns="http://www.w3.org/2000/svg" viewBox="0 0 34.0812 34.0812"><g id="Layer_2" data-name="Layer 2"><g id="Layer_1-2" data-name="Layer 1"><rect width="34.0812" height="34.0812" fill="#ffc200"/><path d="M17.0406,15.0415v-2.41h-3.78v-3.4h-2.51l-.35,3.4h-2.29v2.41h2.29v6.61a4.2567,4.2567,0,0,0,1.16,3.42,4.83,4.83,0,0,0,3.13.95h2.22v-2.43h-1.54a2.551,2.551,0,0,1-1.64-.41,2.0113,2.0113,0,0,1-.47-1.53v-6.61Z" fill="#fff"/><path d="M17.0406,18.561v2.41h3.78v3.4h2.51l.35-3.4h2.29v-2.41h-2.29v-6.61a4.2565,4.2565,0,0,0-1.16-3.42,4.83,4.83,0,0,0-3.13-.95h-2.22v2.43h1.54a2.5516,2.5516,0,0,1,1.64.41,2.0117,2.0117,0,0,1,.47,1.53v6.61Z" fill="#fff"/></g></g></svg>