<svg xmlns="http://www.w3.org/2000/svg" viewBox="0 0 123.5628 34.0812"><g id="Layer_2" data-name="Layer 2"><g id="Layer_1-2" data-name="Layer 1"><rect width="34.0812" height="34.0812" fill="#ffc200"/><path d="M17.0406,15.0415v-2.41h-3.78v-3.4h-2.51l-.35,3.4h-2.29v2.41h2.29v6.61a4.2567,4.2567,0,0,0,1.16,3.42,4.83,4.83,0,0,0,3.13.95h2.22v-2.43h-1.54a2.551,2.551,0,0,1-1.64-.41,2.0113,2.0113,0,0,1-.47-1.53v-6.61Z" fill="#fff"/><path d="M17.0406,18.561v2.41h3.78v3.4h2.51l.35-3.4h2.29v-2.41h-2.29v-6.61a4.2565,4.2565,0,0,0-1.16-3.42,4.83,4.83,0,0,0-3.13-.95h-2.22v2.43h1.54a2.5516,2.5516,0,0,1,1.64.41,2.0117,2.0117,0,0,1,.47,1.53v6.61Z" fill="#fff"/><path d="M63.306,11.8806v2.15a2.6459,2.6459,0,0,0-.73.26h-1.87v-2.41Z" fill="#1d1d1b"/><rect x="67.3154" y="11.8806" width="6.632" height="2.41" fill="#1d1d1b"/><rect x="83.4975" y="11.8806" width="6.96" height="2.41" fill="#1d1d1b"/><rect x="94.3775" y="11.8806" width="9.28" height="2.41" fill="#1d1d1b"/><path d="M50.949,14.2906v-2.41h-3.78v-3.4h-2.51l-.35,3.4h-2.29v2.41h2.29v6.61a4.2563,4.2563,0,0,0,1.16,3.42,4.83,4.83,0,0,0,3.13.95h2.22v-2.43h-1.54a2.5516,2.5516,0,0,1-1.64-.41,2.0114,2.0114,0,0,1-.47-1.53v-6.61Z" fill="#1d1d1b"/><path d="M60.869,11.8806a5.7147,5.7147,0,0,0-2.89.56,4.344,4.344,0,0,0-1.79,1.63l-.24-2.19h-2.56v13.39h2.86v-6.42a4.7578,4.7578,0,0,1,.57-2.51,4.0705,4.0705,0,0,1,1.47-1.39,4.024,4.024,0,0,1,2.12-.66h.78v-2.41Z" fill="#1d1d1b"/><path d="M70.7161,14.2906a4.6108,4.6108,0,0,0-.94-1.26,4.9635,4.9635,0,0,0-2.03-1.15h-4.55a4.8929,4.8929,0,0,0-.64.23,5.722,5.722,0,0,0-1.75,1.15.5237.5237,0,0,0-.1.11,3.2489,3.2489,0,0,0-.31.33.4173.4173,0,0,1-.2.15l.51.09.1.02.61.1c.08-.46.55-.07,1.04.23h1.23a2.65,2.65,0,0,1,.73-.26,3.9488,3.9488,0,0,1,.99-.12,3.1322,3.1322,0,0,1,2.2.78,3.0694,3.0694,0,0,1,.85,2.35v.24h-3.51a7.0761,7.0761,0,0,0-4.32,1.14,3.623,3.623,0,0,0-1.51,3.07,3.9893,3.9893,0,0,0,.54,2.04,3.8716,3.8716,0,0,0,1.64,1.5,6.1373,6.1373,0,0,0,2.81.57,4.8176,4.8176,0,0,0,2.84-.76,5.03,5.03,0,0,0,1.64-1.86l.25,2.29h2.48v-8.23A5.9623,5.9623,0,0,0,70.7161,14.2906Zm-2.84,6.96a3.7892,3.7892,0,0,1-1.24,1.47,3.3783,3.3783,0,0,1-1.96.56,3.0418,3.0418,0,0,1-1.88-.53,1.7166,1.7166,0,0,1-.69-1.45,1.85,1.85,0,0,1,.72-1.48,3.7671,3.7671,0,0,1,2.41-.59h3.19A6.03,6.03,0,0,1,67.876,21.2506Zm-8.03-7.46a.3723.3723,0,0,0,.35.06Zm-.73-.13.72.13C59.4761,13.5606,59.176,13.0106,59.116,13.6606Z" fill="#1d1d1b"/><path d="M82.6575,11.8806l-3.73,10.67-3.72-10.67h-3l.9,2.41,4.12,10.98h3.4l4.1-10.98.9-2.41Z" fill="#1d1d1b"/><path d="M98.2075,14.7706a3.88,3.88,0,0,0-.3-.48,6.2317,6.2317,0,0,0-1.97-1.85,5.7265,5.7265,0,0,0-1.23-.56h-4.43a5.9875,5.9875,0,0,0-1.32.57,6.118,6.118,0,0,0-1.98,1.84,6.83,6.83,0,0,0-.39.64,7.74,7.74,0,0,0-.85,3.7,7.4047,7.4047,0,0,0,.86,3.65,6.2312,6.2312,0,0,0,2.39,2.44,6.8423,6.8423,0,0,0,3.5.88,6.2014,6.2014,0,0,0,3.98-1.27,6.1078,6.1078,0,0,0,2.15-3.16h-2.87a3.36,3.36,0,0,1-1.23,1.5,3.5161,3.5161,0,0,1-2.03.55,3.9081,3.9081,0,0,1-2.66-1.01,4.1359,4.1359,0,0,1-1.29-2.96h10.43c.01-.25.03-.48.04-.69.01-.2.01-.4.01-.58A6.4874,6.4874,0,0,0,98.2075,14.7706Zm-9.61,2.54a3.6951,3.6951,0,0,1,1.35-2.55,4.0322,4.0322,0,0,1,2.54-.85,3.6992,3.6992,0,0,1,2.56.91,3.4553,3.4553,0,0,1,1.11,2.49Z" fill="#1d1d1b"/><path d="M112.3275,13.0706a4.28,4.28,0,0,0-1.82-1.19h-3.92a4.5611,4.5611,0,0,0-.84.39,4.737,4.737,0,0,0-1.83,1.96l-.21-2.35h-2.54v13.39h2.86v-6.91a4.6546,4.6546,0,0,1,1.04-3.24,3.4266,3.4266,0,0,1,2.63-1.13c2.13,0,3.19,1.29,3.19,3.89v7.39h2.84v-7.69A6.4457,6.4457,0,0,0,112.3275,13.0706Z" fill="#1d1d1b"/><path d="M116.9275,22.8606a2.875,2.875,0,0,0,.9,1.46,4.8376,4.8376,0,0,0,3.04.95v-2.41Z" fill="#1d1d1b"/><path d="M55.3394,22.8406v2.1668a1.4844,1.4844,0,0,0-.4991.2621H50.13V22.8406Z" fill="#1d1d1b"/><rect x="112.1575" y="22.8606" width="8.71" height="2.41" fill="#1d1d1b"/><path d="M123.5628,14.2906v-2.41h-3.77v-3.4h-2.52l-.35,3.4h-2.29v2.41h2.29v6.61a4.2563,4.2563,0,0,0,1.16,3.42,4.8406,4.8406,0,0,0,3.14.95h2.21v-2.43h-1.54a2.5192,2.5192,0,0,1-1.63-.41,1.9724,1.9724,0,0,1-.47-1.53v-6.61Z" fill="#1d1d1b"/></g></g></svg>