<svg xmlns="http://www.w3.org/2000/svg" viewBox="0 0 81.5438 17.12"><g id="Layer_2" data-name="Layer 2"><g id="Layer_1-2" data-name="Layer 1"><path d="M21.287,3.4V5.55a2.6477,2.6477,0,0,0-.73.26h-1.87V3.4Z" fill="#1d1d1b"/><rect x="25.2964" y="3.4" width="6.632" height="2.41" fill="#1d1d1b"/><rect x="41.4785" y="3.4" width="6.96" height="2.41" fill="#1d1d1b"/><rect x="52.3585" y="3.4" width="9.28" height="2.41" fill="#1d1d1b"/><path d="M8.93,5.81V3.4H5.15V0H2.64L2.29,3.4H0V5.81H2.29v6.61a4.2564,4.2564,0,0,0,1.16,3.42,4.83,4.83,0,0,0,3.13.95H8.8V14.36H7.26a2.5516,2.5516,0,0,1-1.64-.41,2.0117,2.0117,0,0,1-.47-1.53V5.81Z" fill="#1d1d1b"/><path d="M18.85,3.4a5.7144,5.7144,0,0,0-2.89.56,4.344,4.344,0,0,0-1.79,1.63L13.93,3.4H11.37V16.79h2.86V10.37a4.7576,4.7576,0,0,1,.57-2.51,4.0705,4.0705,0,0,1,1.47-1.39,4.0238,4.0238,0,0,1,2.12-.66h.78V3.4Z" fill="#1d1d1b"/><path d="M28.697,5.81a4.6073,4.6073,0,0,0-.94-1.26,4.9631,4.9631,0,0,0-2.03-1.15h-4.55a4.8824,4.8824,0,0,0-.64.23,5.72,5.72,0,0,0-1.75,1.15.5241.5241,0,0,0-.1.11,3.26,3.26,0,0,0-.31.33.4171.4171,0,0,1-.2.15l.51.09.1.02.61.1c.08-.46.55-.07,1.04.23h1.23a2.6483,2.6483,0,0,1,.73-.26,3.948,3.948,0,0,1,.99-.12,3.1325,3.1325,0,0,1,2.2.78,3.0692,3.0692,0,0,1,.85,2.35V8.8h-3.51a7.0759,7.0759,0,0,0-4.32,1.14,3.623,3.623,0,0,0-1.51,3.07,3.99,3.99,0,0,0,.54,2.04,3.8732,3.8732,0,0,0,1.64,1.5,6.1368,6.1368,0,0,0,2.81.57,4.818,4.818,0,0,0,2.84-.76,5.03,5.03,0,0,0,1.64-1.86l.25,2.29h2.48V8.56A5.9611,5.9611,0,0,0,28.697,5.81Zm-2.84,6.96a3.79,3.79,0,0,1-1.24,1.47,3.3785,3.3785,0,0,1-1.96.56,3.0418,3.0418,0,0,1-1.88-.53,1.7164,1.7164,0,0,1-.69-1.45,1.85,1.85,0,0,1,.72-1.48,3.7676,3.7676,0,0,1,2.41-.59h3.19A6.031,6.031,0,0,1,25.857,12.77Zm-8.03-7.46a.3727.3727,0,0,0,.35.06Zm-.73-.13.72.13C17.457,5.08,17.157,4.53,17.097,5.18Z" fill="#1d1d1b"/><path d="M40.6385,3.4l-3.73,10.67L33.1884,3.4h-3l.9,2.41,4.12,10.98h3.4l4.1-10.98.9-2.41Z" fill="#1d1d1b"/><path d="M56.1884,6.29a3.88,3.88,0,0,0-.3-.48,6.2328,6.2328,0,0,0-1.97-1.85,5.7225,5.7225,0,0,0-1.23-.56h-4.43a5.9856,5.9856,0,0,0-1.32.57,6.1186,6.1186,0,0,0-1.98,1.84,6.7964,6.7964,0,0,0-.39.64,7.74,7.74,0,0,0-.85,3.7,7.4037,7.4037,0,0,0,.86,3.65,6.2312,6.2312,0,0,0,2.39,2.44,6.8421,6.8421,0,0,0,3.5.88,6.2016,6.2016,0,0,0,3.98-1.27,6.1084,6.1084,0,0,0,2.15-3.16h-2.87a3.36,3.36,0,0,1-1.23,1.5,3.5156,3.5156,0,0,1-2.03.55,3.908,3.908,0,0,1-2.66-1.01,4.1358,4.1358,0,0,1-1.29-2.96h10.43c.01-.25.03-.48.04-.69.01-.2.01-.4.01-.58A6.4863,6.4863,0,0,0,56.1884,6.29Zm-9.61,2.54a3.6946,3.6946,0,0,1,1.35-2.55,4.0327,4.0327,0,0,1,2.54-.85,3.6989,3.6989,0,0,1,2.56.91,3.4553,3.4553,0,0,1,1.11,2.49Z" fill="#1d1d1b"/><path d="M70.3084,4.59a4.28,4.28,0,0,0-1.82-1.19h-3.92a4.56,4.56,0,0,0-.84.39,4.7351,4.7351,0,0,0-1.83,1.96l-.21-2.35h-2.54V16.79h2.86V9.88a4.6544,4.6544,0,0,1,1.04-3.24,3.4262,3.4262,0,0,1,2.63-1.13c2.13,0,3.19,1.29,3.19,3.89v7.39h2.84V9.1A6.4457,6.4457,0,0,0,70.3084,4.59Z" fill="#1d1d1b"/><path d="M74.9085,14.38a2.8755,2.8755,0,0,0,.9,1.46,4.8379,4.8379,0,0,0,3.04.95V14.38Z" fill="#1d1d1b"/><path d="M13.32,14.36v2.1668a1.4859,1.4859,0,0,0-.4991.262H8.1106V14.36Z" fill="#1d1d1b"/><rect x="70.1385" y="14.38" width="8.71" height="2.41" fill="#1d1d1b"/><path d="M81.5438,5.81V3.4h-3.77V0h-2.52l-.35,3.4h-2.29V5.81h2.29v6.61a4.2564,4.2564,0,0,0,1.16,3.42,4.84,4.84,0,0,0,3.14.95h2.21V14.36h-1.54a2.5192,2.5192,0,0,1-1.63-.41,1.9726,1.9726,0,0,1-.47-1.53V5.81Z" fill="#1d1d1b"/></g></g></svg>